<?xml version="1.0" encoding="utf-8"?>
<!-- Generator: Adobe Illustrator 16.0.0, SVG Export Plug-In . SVG Version: 6.00 Build 0)  -->
<!DOCTYPE svg PUBLIC "-//W3C//DTD SVG 1.1//EN" "http://www.w3.org/Graphics/SVG/1.1/DTD/svg11.dtd">
<svg version="1.1" xmlns="http://www.w3.org/2000/svg" xmlns:xlink="http://www.w3.org/1999/xlink" x="0px" y="0px"
	 width="16.729px" height="9.333px" viewBox="0 0 16.729 9.333" enable-background="new 0 0 16.729 9.333" xml:space="preserve">
<g id="Слой_1">
</g>
<g id="АФИША">
	<g>
		<path fill="#BABABA" d="M9.08,1.238L1.302,9.017c-0.167,0.167-0.439,0.167-0.606,0l-0.41-0.41C0.118,8.439,0.118,8.168,0.286,8
			l7.779-7.778c0.167-0.167,0.438-0.167,0.606,0l0.41,0.41C9.248,0.799,9.248,1.07,9.08,1.238z"/>
		<path fill="#BABABA" d="M8.682,0.222L16.461,8c0.167,0.168,0.167,0.439,0,0.606l-0.41,0.41c-0.167,0.167-0.438,0.167-0.606,0
			L7.666,1.238c-0.167-0.167-0.167-0.439,0-0.606l0.41-0.41C8.244,0.055,8.515,0.055,8.682,0.222z"/>
	</g>
</g>
<g id="Слой_4">
</g>
</svg>
