<?xml version="1.0" encoding="utf-8"?>
<!-- Generator: Adobe Illustrator 16.0.0, SVG Export Plug-In . SVG Version: 6.00 Build 0)  -->
<!DOCTYPE svg PUBLIC "-//W3C//DTD SVG 1.1//EN" "http://www.w3.org/Graphics/SVG/1.1/DTD/svg11.dtd">
<svg version="1.1" xmlns="http://www.w3.org/2000/svg" xmlns:xlink="http://www.w3.org/1999/xlink" x="0px" y="0px" width="20px"
	 height="13.667px" viewBox="0 0 20 13.667" enable-background="new 0 0 20 13.667" xml:space="preserve">
<g id="Слой_1">
</g>
<g id="АФИША">
	<g>
		<path fill="#BABABA" d="M9.333,10.606l7.779-7.778c0.167-0.167,0.438-0.167,0.606,0l0.41,0.41c0.167,0.167,0.167,0.438,0,0.606
			l-7.779,7.779c-0.167,0.167-0.439,0.167-0.606,0l-0.41-0.411C9.166,11.045,9.166,10.773,9.333,10.606z"/>
		<path fill="#BABABA" d="M9.731,11.623L1.952,3.844c-0.167-0.168-0.167-0.439,0-0.606l0.41-0.411c0.167-0.167,0.439-0.167,0.606,0
			l7.779,7.779c0.167,0.167,0.167,0.439,0,0.606l-0.41,0.411C10.17,11.79,9.898,11.79,9.731,11.623z"/>
	</g>
</g>
<g id="Слой_4">
</g>
</svg>
