<?xml version="1.0" encoding="utf-8"?>
<!-- Generator: Adobe Illustrator 19.0.1, SVG Export Plug-In . SVG Version: 6.00 Build 0)  -->
<svg version="1.1" xmlns="http://www.w3.org/2000/svg" xmlns:xlink="http://www.w3.org/1999/xlink" x="0px" y="0px"
	 viewBox="0 0 13.5 12" style="enable-background:new 0 0 13.5 12;" xml:space="preserve">
<g id="Описание_афиши">
	<g class="st51">
		<path class="st12" fill="#fff" d="M0.7,6.1L0.7,6.1L0.7,6.1L0.7,6.1L0.7,6.1C0.6,6,0.6,6,0.6,6l0,0l0,0l0,0c0,0,0-0.1,0-0.1l0,0l0-0.1L0.3,5.7
			L0,5.7v0v0l0.3,0l0.1-0.1l0.1-0.1l-0.3,0c0,0-0.2-0.1-0.2-0.1v0l0.3,0l0.1,0c0,0,0.1,0,0.1-0.1l0,0l0,0l0,0l0,0l0,0l5-5
			c0.2-0.2,0.6-0.2,0.9,0c0.2,0.2,0.2,0.6,0,0.9L2.7,5h9.7C12.7,5,13,5.2,13,5.5C13,5.8,12.7,6,12.4,6H2.7l4,4.1
			c0.2,0.2,0.2,0.7,0,1c-0.2,0.2-0.6,0.3-0.9,0L0.7,6.1L0.7,6.1z M0.5,5.7L0.5,5.7L0.5,5.7L0.5,5.7L0.5,5.7L0.5,5.7z"/>
	</g>
</g>
<g id="Слой_4">
</g>
</svg>
