<?xml version="1.0" encoding="utf-8"?>
<!-- Generator: Adobe Illustrator 19.0.1, SVG Export Plug-In . SVG Version: 6.00 Build 0)  -->
<svg version="1.1" xmlns="http://www.w3.org/2000/svg" xmlns:xlink="http://www.w3.org/1999/xlink" x="0px" y="0px"
	 viewBox="0 0 28 28" style="enable-background:new 0 0 28 28;" xml:space="preserve">
<style type="text/css">
	.st79{fill:#4F5359;}
	.st80{fill:url(#SVGID_86_);}
	.st81{display:none;fill:#785AA2;}
	.st82{fill-rule:evenodd;clip-rule:evenodd;fill:#C0C0C0;}
	.st83{fill-rule:evenodd;clip-rule:evenodd;fill:#2A2A2A;}
	.st84{fill-rule:evenodd;clip-rule:evenodd;fill:#C1C1C1;}
	.st85{fill-rule:evenodd;clip-rule:evenodd;fill:#FEFEFE;}
	.st86{opacity:0.2;}
	.st87{clip-path:url(#SVGID_88_);fill:#AA3F54;}
	.st88{opacity:0.4;clip-path:url(#SVGID_90_);fill:#1C1C1C;}
	.st89{opacity:0.3;clip-path:url(#SVGID_94_);fill:#1C1C1C;}
	.st90{display:none;clip-path:url(#SVGID_94_);fill:#7D59B3;}
	.st91{display:none;opacity:0.6;clip-path:url(#SVGID_94_);}
	.st92{display:inline;fill:#AD1380;}
	.st93{clip-path:url(#SVGID_98_);fill-rule:evenodd;clip-rule:evenodd;fill:#5B378D;}
	.st94{display:none;clip-path:url(#SVGID_98_);fill-rule:evenodd;clip-rule:evenodd;fill:#785AA2;}
	.st95{display:inline;fill:none;stroke:#FFFFFF;stroke-miterlimit:10;}
	.st96{fill:url(#SVGID_99_);}
	.st97{opacity:0.4;clip-path:url(#SVGID_101_);fill:#1C1C1C;}
	.st98{opacity:0.4;clip-path:url(#SVGID_103_);fill:#1C1C1C;}
	.st99{opacity:0.4;clip-path:url(#SVGID_105_);fill:#1C1C1C;}
	.st100{clip-path:url(#SVGID_109_);fill:#BF4C5D;}
	.st101{clip-path:url(#SVGID_115_);fill:#7D59B3;}
	.st102{clip-path:url(#SVGID_121_);}
	.st103{opacity:0.3;clip-path:url(#SVGID_127_);fill:#1C1C1C;}
	.st104{display:none;clip-path:url(#SVGID_127_);fill:#7D59B3;}
	.st105{opacity:0.6;clip-path:url(#SVGID_127_);}
	.st106{opacity:0.3;clip-path:url(#SVGID_133_);fill:#1C1C1C;}
	.st107{opacity:0.6;clip-path:url(#SVGID_133_);}
	.st108{fill:url(#SVGID_136_);}
	.st109{opacity:0.2;clip-path:url(#SVGID_138_);fill:#1C1C1C;}
	.st110{clip-path:url(#SVGID_142_);fill:#004A6E;}
	.st111{display:none;clip-path:url(#SVGID_142_);fill:#A21258;}
	.st112{opacity:0.4;clip-path:url(#SVGID_144_);fill:#1C1C1C;}
	.st113{opacity:0.4;clip-path:url(#SVGID_146_);fill:#1C1C1C;}
	.st114{fill:#1C1C1C;}
	.st115{display:none;fill:none;}
	.st116{clip-path:url(#SVGID_148_);}
	.st117{fill:#FAFAFA;}
	.st118{opacity:4.000000e-002;}
	.st119{fill:url(#SVGID_149_);}
	.st120{fill:url(#SVGID_150_);}
	.st121{clip-path:url(#SVGID_152_);fill:#37247A;}
	.st122{fill:#F8D4E7;}
	.st123{fill:#CCA2CB;}
	.st124{fill:#C3368C;}
	.st125{fill:#CA85B8;}
	.st126{fill:#E5DBEE;}
	.st127{fill:#D44893;}
	.st128{fill:#F7CCE2;}
	.st129{fill:#E7B4D4;}
</style>
<g id="Слой_1">
</g>
<g id="ХОВЕРЫ" class="st1">
</g>
<g id="_x33_20_px">
	<g>
		<path class="st79" d="M24,5c1.1,0,2,0.7,2,1.9V24c0,1.1-0.9,2-2,2H4.1C3,26,2,25.1,2,24V6.9C2,5.7,3,5,4.1,5H24 M24,3H4.1
			C1.9,3,0,4.6,0,6.9V24c0,2.2,1.9,4,4.1,4H24c2.2,0,4-1.8,4-4V6.9C28,4.6,26.2,3,24,3L24,3z"/>
		<path class="st79" d="M7,5c0,0.6-0.4,1-1,1l0,0C5.4,6,5,5.6,5,5V1c0-0.6,0.4-1,1-1l0,0c0.6,0,1,0.4,1,1V5z"/>
		<path class="st79" d="M23,5c0,0.6-0.4,1-1,1l0,0c-0.6,0-1-0.4-1-1V1c0-0.6,0.4-1,1-1l0,0c0.6,0,1,0.4,1,1V5z"/>
		<rect x="1" y="8" class="st79" width="26" height="2"/>
		<circle class="st79" cx="22" cy="15" r="2"/>
		<circle class="st79" cx="16.7" cy="15" r="2"/>
		<circle class="st79" cx="11.3" cy="15" r="2"/>
		<circle class="st79" cx="16.7" cy="21" r="2"/>
		<circle class="st79" cx="11.3" cy="21" r="2"/>
		<circle class="st79" cx="6" cy="21" r="2"/>
	</g>
</g>
</svg>
