<?xml version="1.0" encoding="utf-8"?>
<!-- Generator: Adobe Illustrator 16.0.0, SVG Export Plug-In . SVG Version: 6.00 Build 0)  -->
<!DOCTYPE svg PUBLIC "-//W3C//DTD SVG 1.1//EN" "http://www.w3.org/Graphics/SVG/1.1/DTD/svg11.dtd">
<svg version="1.1" xmlns="http://www.w3.org/2000/svg" xmlns:xlink="http://www.w3.org/1999/xlink" x="0px" y="0px"
	 width="41.438px" height="41.625px" viewBox="0 0 41.438 41.625" enable-background="new 0 0 41.438 41.625" xml:space="preserve">
<g id="Слой_1">
</g>
<g id="АФИША">
	<g>
		<circle fill="none" stroke="#EFA0C6" stroke-miterlimit="10" cx="5.9" cy="35.779" r="4.973"/>
		<circle fill="none" stroke="#EFA0C6" stroke-miterlimit="10" cx="5.9" cy="20.86" r="4.973"/>
		<circle fill="none" stroke="#EFA0C6" stroke-miterlimit="10" cx="5.9" cy="5.942" r="4.973"/>
		<path fill="none" stroke="#EFA0C6" stroke-miterlimit="10" d="M35.692,40.737H20.71c-2.743,0-4.966-2.223-4.966-4.965l0,0
			c0-2.743,2.223-4.966,4.966-4.966h14.982c2.742,0,4.965,2.223,4.965,4.966l0,0C40.658,38.514,38.435,40.737,35.692,40.737z"/>
		<path fill="none" stroke="#EFA0C6" stroke-miterlimit="10" d="M35.692,25.862H20.71c-2.743,0-4.966-2.224-4.966-4.966l0,0
			c0-2.743,2.223-4.966,4.966-4.966h14.982c2.742,0,4.965,2.223,4.965,4.966l0,0C40.658,23.638,38.435,25.862,35.692,25.862z"/>
		<path fill="none" stroke="#EFA0C6" stroke-miterlimit="10" d="M35.692,10.883H20.71c-2.743,0-4.966-2.223-4.966-4.966l0,0
			c0-2.743,2.223-4.966,4.966-4.966h14.982c2.742,0,4.965,2.223,4.965,4.966l0,0C40.658,8.66,38.435,10.883,35.692,10.883z"/>
	</g>
</g>
<g id="Слой_4">
</g>
</svg>
