<?xml version="1.0" encoding="utf-8"?>
<!-- Generator: Adobe Illustrator 16.0.0, SVG Export Plug-In . SVG Version: 6.00 Build 0)  -->
<!DOCTYPE svg PUBLIC "-//W3C//DTD SVG 1.1//EN" "http://www.w3.org/Graphics/SVG/1.1/DTD/svg11.dtd">
<svg version="1.1" xmlns="http://www.w3.org/2000/svg" xmlns:xlink="http://www.w3.org/1999/xlink" x="0px" y="0px"
	 width="41.668px" height="38.334px" viewBox="0 0 41.668 38.334" enable-background="new 0 0 41.668 38.334" xml:space="preserve">
<g id="Слой_1">
	<g>
		<defs>
			<rect id="SVGID_1_" x="-2464.332" y="-747" width="2144" height="2579"/>
		</defs>
		<clipPath id="SVGID_2_">
			<use xlink:href="#SVGID_1_"  overflow="visible"/>
		</clipPath>
	</g>
	<path fill-rule="evenodd" clip-rule="evenodd" fill="#666666" d="M20.241,11.934c0.797-0.893,1.966-1.306,3.159-1.339
		c1.002-0.014,1.934,0.028,2.934,0.13v3.087c-1,0.001-1.268,0.001-1.934-0.001c-1.118,0.016-1.631,0.578-1.676,1.699l0.025,2.523
		h3.551l-0.469,3.204l-3.082-0.006l0.005,8.802H19.16l0.004-8.894l-3.05-0.057l0.002-3.391l3.048-0.02
		c-0.007-0.896-0.005-1.799-0.002-2.696C19.168,13.89,19.484,12.759,20.241,11.934"/>
	<path fill="#666666" d="M28.721,5.033c3.975,0,7.613,2.864,7.613,6.712v15.557c0,3.847-3.639,6.731-7.613,6.731H12.652
		c-3.975,0-7.318-2.884-7.318-6.731V11.745c0-3.848,3.344-6.712,7.318-6.712h15.682 M28.721,2.033H12.652
		c-5.664,0-10.318,4.228-10.318,9.712v15.557c0,5.483,4.654,9.731,10.318,9.731h16.068c5.664,0,10.613-4.248,10.613-9.731V11.745
		C39.334,6.261,34.385,2.033,28.721,2.033"/>
</g>
<g id="Слой_4" display="none">
</g>
<g id="Слой_3" display="none">
	
		<linearGradient id="SVGID_4_" gradientUnits="userSpaceOnUse" x1="-2463.9629" y1="1831.6294" x2="-2462.9624" y2="1831.6294" gradientTransform="matrix(1.000000e-007 -2558.4958 -2558.4958 -1.000000e-007 4685773 -6303165.5)">
		<stop  offset="0" style="stop-color:#2D003F"/>
		<stop  offset="0.1809" style="stop-color:#7B0094"/>
		<stop  offset="0.4149" style="stop-color:#3C00AA"/>
		<stop  offset="0.5798" style="stop-color:#49007F"/>
		<stop  offset="0.7553" style="stop-color:#6300BF"/>
		<stop  offset="0.9043" style="stop-color:#9E005D"/>
		<stop  offset="1" style="stop-color:#FF94B2"/>
	</linearGradient>
	<rect x="-1514.278" y="-1692.094" display="inline" fill="url(#SVGID_4_)" width="2144" height="2579.001"/>
</g>
<g id="Слой_2" display="none">
</g>
</svg>
