<?xml version="1.0" encoding="utf-8"?>
<!-- Generator: Adobe Illustrator 16.0.0, SVG Export Plug-In . SVG Version: 6.00 Build 0)  -->
<!DOCTYPE svg PUBLIC "-//W3C//DTD SVG 1.1//EN" "http://www.w3.org/Graphics/SVG/1.1/DTD/svg11.dtd">
<svg version="1.1" xmlns="http://www.w3.org/2000/svg" xmlns:xlink="http://www.w3.org/1999/xlink" x="0px" y="0px"
	 width="41.668px" height="38.334px" viewBox="0 0 41.668 38.334" enable-background="new 0 0 41.668 38.334" xml:space="preserve">
<g id="Слой_1">
	<g>
		<defs>
			<rect id="SVGID_1_" x="-2464.332" y="-747" width="2144" height="2579"/>
		</defs>
		<clipPath id="SVGID_2_">
			<use xlink:href="#SVGID_1_"  overflow="visible"/>
		</clipPath>
	</g>
	<path fill-rule="evenodd" clip-rule="evenodd" fill="#666666" d="M20.382,1.194c-4.547,0-5.189,0.249-7.076,0.332
		c-1.943,0.086-3.271,0.497-4.433,0.934c-1.201,0.452-2.22,1.113-3.234,2.096C4.624,5.539,4,6.552,3.532,7.715
		c-0.45,1.124-0.76,2.423-0.848,4.305c-0.09,1.885-0.111,2.494-0.111,7.295c0,4.801,0.021,5.407,0.111,7.292
		c0.088,1.882,0.397,3.169,0.848,4.293C4,32.063,4.624,33.049,5.639,34.033c1.015,0.983,2.033,1.588,3.234,2.039
		c1.162,0.437,2.489,0.737,4.433,0.822C15.253,36.979,15.875,37,20.834,37s5.581-0.02,7.528-0.107
		c1.943-0.085,3.271-0.384,4.433-0.821c1.2-0.452,2.219-1.056,3.233-2.039c1.016-0.983,1.64-1.969,2.106-3.131
		c0.451-1.125,0.761-2.41,0.849-4.291c0.086-1.827,0.111-2.449,0.111-6.851v-0.876c0-4.401-0.025-5.023-0.111-6.85
		c-0.088-1.881-0.396-3.167-0.849-4.291c-0.466-1.163-1.091-2.148-2.106-3.131c-1.015-0.983-2.032-1.587-3.233-2.039
		c-1.162-0.438-2.489-0.961-4.433-1.047c-1.887-0.083-2.529-0.332-7.076-0.332H20.382z M20.834,4.831
		c4.875,0,5.453,0.018,7.378,0.103c1.781,0.079,2.748,0.367,3.391,0.609c0.853,0.32,1.461,0.704,2.101,1.322
		c0.639,0.619,1.034,1.208,1.364,2.033c0.25,0.623,0.549,1.559,0.629,3.282c0.089,1.864,0.107,2.423,0.107,7.143
		c0,4.721-0.019,5.28-0.107,7.144c-0.08,1.723-0.379,2.659-0.629,3.282c-0.33,0.825-0.726,1.414-1.364,2.033
		c-0.64,0.618-1.248,1.001-2.101,1.322c-0.643,0.242-1.609,0.53-3.391,0.609c-1.925,0.085-2.502,0.103-7.378,0.103
		s-5.453-0.018-7.379-0.103c-1.78-0.079-2.747-0.367-3.39-0.609c-0.853-0.321-1.461-0.704-2.101-1.322
		c-0.64-0.619-1.034-1.208-1.366-2.033c-0.25-0.623-0.547-1.559-0.628-3.282c-0.088-1.864-0.106-2.423-0.106-7.144
		c0-4.72,0.019-5.279,0.106-7.143c0.081-1.723,0.378-2.659,0.628-3.282c0.332-0.825,0.727-1.414,1.366-2.033
		c0.64-0.618,1.248-1.002,2.101-1.322c0.643-0.242,1.609-0.53,3.39-0.609C15.381,4.849,15.958,4.831,20.834,4.831"/>
	<path fill-rule="evenodd" clip-rule="evenodd" fill="#666666" d="M20.834,25.215c-3.362,0-6.087-2.638-6.087-5.892
		c0-3.255,2.725-5.893,6.087-5.893c3.36,0,6.087,2.638,6.087,5.893C26.921,22.577,24.194,25.215,20.834,25.215 M20.834,10.245
		c-5.179,0-9.377,4.064-9.377,9.078c0,5.013,4.198,9.077,9.377,9.077s9.377-4.064,9.377-9.077
		C30.211,14.309,26.013,10.245,20.834,10.245"/>
	<path fill-rule="evenodd" clip-rule="evenodd" fill="#666666" d="M32.772,9.887c0,1.172-0.981,2.121-2.191,2.121
		s-2.191-0.949-2.191-2.121c0-1.172,0.981-2.121,2.191-2.121S32.772,8.714,32.772,9.887"/>
</g>
<g id="Слой_4" display="none">
</g>
<g id="Слой_3" display="none">
	
		<linearGradient id="SVGID_4_" gradientUnits="userSpaceOnUse" x1="-2463.9629" y1="1831.6294" x2="-2462.9624" y2="1831.6294" gradientTransform="matrix(1.000000e-007 -2558.4958 -2558.4958 -1.000000e-007 4685773 -6303165.5)">
		<stop  offset="0" style="stop-color:#2D003F"/>
		<stop  offset="0.1809" style="stop-color:#7B0094"/>
		<stop  offset="0.4149" style="stop-color:#3C00AA"/>
		<stop  offset="0.5798" style="stop-color:#49007F"/>
		<stop  offset="0.7553" style="stop-color:#6300BF"/>
		<stop  offset="0.9043" style="stop-color:#9E005D"/>
		<stop  offset="1" style="stop-color:#FF94B2"/>
	</linearGradient>
	<rect x="-1514.278" y="-1692.094" display="inline" fill="url(#SVGID_4_)" width="2144" height="2579.001"/>
</g>
<g id="Слой_2" display="none">
</g>
</svg>
