<!-- Generator: Adobe Illustrator 19.1.1, SVG Export Plug-In  -->
<svg version="1.1"
	 xmlns="http://www.w3.org/2000/svg" xmlns:xlink="http://www.w3.org/1999/xlink" xmlns:a="http://ns.adobe.com/AdobeSVGViewerExtensions/3.0/"
	 x="0px" y="0px" width="40px" height="28.9px" viewBox="0 0 40 28.9" style="enable-background:new 0 0 40 28.9;"
	 xml:space="preserve">
<style type="text/css">
	.st0{fill:#E44E96;}
	.st1{fill:#F8D4E7;}
	.st2{fill:#CCA2CB;}
	.st3{fill:#C3368C;}
	.st4{fill:#CA85B8;}
	.st5{fill:#E5DBEE;}
	.st6{fill:#D44893;}
	.st7{fill:#F7CCE2;}
	.st8{fill:#E7B4D4;}
</style>
<defs>
</defs>
<path class="st0" d="M40,7.6C40,7.5,40,7.5,40,7.6c-7.1-0.4-14.7,0.9-19.4,2.5c-3.8,1.4-8.5,4-11.6,7c-2.4,2.2-6.6,7.2-6.6,7.2
	s2-2,6.8-4.4c4.2-2.2,10.5-3.7,16.7-4.1c7.4-0.5,10.4,0.1,11.2,0.4L40,7.6z"/>
<path class="st1" d="M39,10.6l-0.6,1.7c0,0,0,0,0,0L39,10.6z M38.3,12.6l-1.2,3.5c-1.6-0.3-4-0.5-6.8-0.5c-3.3,0-7.3,0.3-11.5,1.1
	c1.2-0.1,2.6-0.2,4-0.3c0.2,0,0.5,0,0.7,0c4.5,0,11.5,1.2,12.9,1.6L38.3,12.6z M3.3,23.5c0,0-0.1,0.1-0.1,0.1
	c-0.2,0.2-0.3,0.3-0.3,0.3S3.1,23.7,3.3,23.5"/>
<path class="st0" d="M35.6,7.8l-0.3,1.7c0,0-0.7,0-1.9,0c-1.9,0-5,0.1-8,0.7c-5.3,1-10.3,3.1-13.6,5.1c-0.3,0.2-0.5,0.3-0.7,0.5
	c-0.5,0.4-1,0.9-1.5,1.3c-3,2.7-5.5,5.6-6.4,6.6c0,0,0.1-0.1,0.1-0.1c0.9-0.9,3.2-3,5.9-4.3c0.6-0.3,1.2-0.5,1.8-0.7
	c1.8-1.2,3.7-2.2,5.7-3.1C21.2,13.5,26,12,33,12c1.7,0,3.4,0.1,5.4,0.3l0.6-2.1L39.9,7c-0.1,0-0.2,0-0.3,0c-0.7,0-1.4,0.4-2,0.4
	C36.8,7.4,36.2,7.8,35.6,7.8"/>
<path class="st2" d="M9.1,21.5c-1.6,0.5-3,1-4.2,1.6c-1.9,2.1-4.3,4.9-4.8,5.5c0.6-0.7,3.9-4.5,8.6-7C8.8,21.7,9,21.6,9.1,21.5"/>
<path class="st2" d="M0.1,28.7C0,28.8,0,28.9,0,28.9S0,28.8,0.1,28.7"/>
<path class="st2" d="M38.4,12.3l-0.1,0.4L38.4,12.3C38.4,12.3,38.4,12.3,38.4,12.3 M18.8,16.7c-0.1,0-0.2,0-0.3,0
	c-1,0.2-1.9,0.4-2.8,0.7C16.8,17.1,17.8,16.9,18.8,16.7"/>
<path class="st3" d="M18.6,16.7c-2.8,0.3-5.2,0.9-7.6,1.8c-0.6,0.4-1.3,0.9-1.9,1.3c1.6-0.8,3.3-1.5,4.9-2c0.6-0.2,1.1-0.3,1.7-0.5
	C16.6,17.1,17.6,16.9,18.6,16.7"/>
<path class="st4" d="M38.4,12.3l-1.3,3.8l1.2-3.5L38.4,12.3C38.4,12.3,38.4,12.3,38.4,12.3 M31,15.5c-1.4,0-3.1,0.1-5.1,0.2
	c-2.5,0.2-5,0.5-7.3,1c0.1,0,0.2,0,0.3,0c4.1-0.8,8.1-1.1,11.5-1.1c2.9,0,5.2,0.2,6.8,0.5C36.5,15.9,34.7,15.5,31,15.5"/>
<path class="st3" d="M33,12c-7.1,0-11.9,1.5-16.3,3.4c-2,0.9-4,1.9-5.7,3.1c2.4-0.9,4.7-1.5,7.6-1.8c2.4-0.5,4.8-0.8,7.3-1
	c2-0.1,3.7-0.2,5.1-0.2c3.7,0,5.5,0.4,6.1,0.5l1.3-3.8C36.5,12.1,34.7,12,33,12"/>
<path class="st5" d="M33.5,0C28,1.3,25.2,2.8,20.9,5.3c-3.1,1.8-6.7,5-8.6,7.1c-3.6,4.1-5.7,6.9-6.2,7.7c0.1-0.1,0.3-0.3,0.4-0.4
	c0.1-0.1,0.2-0.3,0.4-0.4c0.9-1.2,2.8-3.7,4.1-5c2.2-2.3,5.9-5.2,8.9-6.7c4.1-2,8.4-3.3,13.2-4.2l0.7-3.2c0,0,0,0,0-0.1
	C33.6,0,33.6,0,33.5,0"/>
<path class="st6" d="M6.5,19.6c-0.1,0.1-0.3,0.3-0.4,0.4c-0.1,0.2-0.2,0.2-0.2,0.2c0,0,0,0,0,0C6,20.2,6.2,20,6.5,19.6"/>
<path class="st7" d="M36.2,2.8c-1.1,0.2-2.1,0.3-3.2,0.5l-0.6,2.8c0,0-0.1,0-0.4,0c-0.9,0-3.2,0.2-7.5,1.5
	c-4.9,1.4-8.3,3.6-11.2,5.6c-2.3,1.6-5,4.5-6.4,6.1c0,0.1-0.1,0.1-0.1,0.2c0.8-0.9,1.6-1.7,2.3-2.3c3.2-3,7.8-5.6,11.6-7
	c3.8-1.3,9.4-2.4,15-2.6l0.7-4.5c0,0,0-0.1,0-0.1C36.3,2.8,36.2,2.8,36.2,2.8"/>
<path class="st0" d="M35.6,7.1c-5.7,0.2-11.3,1.5-15,2.8C16.8,11.3,12.1,14,9,17c-0.7,0.6-1.4,1.5-2.3,2.4c-0.2,0.3-0.3,0.5-0.3,0.5
	c0,0,1.5-2,4.7-4.1c2.9-2.4,6.6-5.1,9.8-6C27.7,7.7,31.7,7,35.5,7C35.5,7,35.5,7,35.6,7.1L35.6,7.1z"/>
<path class="st0" d="M35.3,7.4c-3.7,0-7.7,0.5-14.6,2.5c-3.1,0.9-6.8,3.3-9.7,5.7c0.2-0.2,0.5-0.3,0.8-0.4c3.2-2,8.2-4,13.6-5
	c3-0.6,6.1-0.7,8-0.7c1.2,0,1.9-0.4,1.9-0.4L35.6,7c0,0-0.6,0-0.6,0"/>
<path class="st8" d="M33,3.3c-4.8,0.9-9.1,2.2-13.2,4.2c-3,1.5-6.7,4.4-8.9,6.7c-1.2,1.3-3.2,3.8-4.1,5c1.4-1.6,4.1-4.5,6.4-6.1
	c2.9-2,6.3-4.1,11.2-5.6c4.4-1.3,6.7-1.5,7.5-1.5c0.3,0,0.4,0,0.4,0L33,3.3z"/>
</svg>
