<?xml version="1.0" encoding="utf-8"?>
<!-- Generator: Adobe Illustrator 16.0.0, SVG Export Plug-In . SVG Version: 6.00 Build 0)  -->
<!DOCTYPE svg PUBLIC "-//W3C//DTD SVG 1.1//EN" "http://www.w3.org/Graphics/SVG/1.1/DTD/svg11.dtd">
<svg version="1.1" xmlns="http://www.w3.org/2000/svg" xmlns:xlink="http://www.w3.org/1999/xlink" x="0px" y="0px"
	 width="222.583px" height="101.9px" viewBox="0 0 222.583 101.9" enable-background="new 0 0 222.583 101.9" xml:space="preserve">
<g id="Слой_1">
	<path fill="#B8A9D3" d="M128.391,31.178l-4.195,9.965c0,0,4.884,1.118,8.172,5.288c3.592,4.563,4.486,7.514,4.578,10.415
		c0.093,3.009-1.491,6.497-2.32,8.104c1.057-1.979,2.23-4.293,2.549-5.385c1.514-5.132,2.727-10.41,0.523-17.589
		C136.326,37.499,131.986,33.688,128.391,31.178"/>
</g>
<g id="Слой_4">
	<path fill="#AD1380" d="M203.701,1.004c-14.248,4.141-23.33,10.505-32.177,17.396c-7.929,6.176-16.813,16.434-21.629,23.364
		c-11.868,17.086-17.347,27.525-16.541,26.004c0,0,0.861-1.367,2.28-3.479c2.267-3.838,7.244-12.143,10.377-16.397
		c5.525-7.511,15.09-17.162,22.695-21.959c10.429-6.587,21.582-11.027,33.748-13.982l1.666-10.362
		C204.25,1.188,203.885,0.967,203.701,1.004"/>
	<path fill="#EFA0C6" d="M140.974,57.442c8.087-9.746,19.983-18.507,29.729-23.021c9.56-4.429,23.67-7.88,38.033-8.591l1.887-14.857
		c0.037-0.275-0.055-0.395-0.109-0.44c-0.091-0.076-0.227-0.09-0.421-0.092c-15.363,2.855-29.101,7.676-41.802,15.698
		c-7.619,4.807-17.201,14.475-22.737,22c-4.167,5.658-11.716,18.816-11.716,18.816s0.813-1.28,2.389-3.321
		C137.932,61.296,139.576,59.128,140.974,57.442"/>
	<path fill="#FFFFFF" d="M4.703,72.733c0.146,0.016,0.287-0.003,0.431-0.046c0.142-0.045,0.245-0.197,0.306-0.452l2.019-9.569
		c0.358-1.693,0.721-3.538,1.087-5.529c0.365-1.989,0.659-3.824,0.882-5.505h0.077c0.086,1.827,0.213,3.516,0.387,5.066
		c0.176,1.552,0.368,3.063,0.59,4.541l1.584,10.84c0.002,0.111,0.055,0.247,0.133,0.399c0.089,0.157,0.287,0.239,0.598,0.255h5.193
		c0.316-0.005,0.535-0.076,0.644-0.209c0.111-0.137,0.179-0.284,0.205-0.445l3.638-11.5c0.825-2.629,1.428-4.713,1.807-6.244
		c0.377-1.536,0.589-2.431,0.641-2.703h0.075c-0.029,1.415-0.05,2.55-0.06,3.405c-0.016,0.856-0.024,1.636-0.022,2.343
		c0.007,0.71,0.014,1.542,0.046,2.501l0.268,12.081c-0.017,0.1,0.026,0.246,0.118,0.445c0.089,0.196,0.323,0.304,0.695,0.326h3.683
		c0.204,0.016,0.422-0.033,0.618-0.14c0.206-0.104,0.312-0.353,0.308-0.749l-0.776-23.462c0.017-0.138-0.022-0.303-0.117-0.494
		c-0.088-0.194-0.319-0.301-0.692-0.319h-6.043c-0.315,0.007-0.524,0.079-0.627,0.213c-0.097,0.133-0.162,0.282-0.185,0.443
		L18.453,59.96c-0.278,0.887-0.621,2.043-1.016,3.46c-0.389,1.417-0.774,2.987-1.152,4.712h-0.076
		c-0.127-1.771-0.294-3.409-0.491-4.929c-0.196-1.518-0.37-2.751-0.513-3.707l-1.594-11.191c-0.045-0.318-0.153-0.523-0.32-0.615
		c-0.163-0.092-0.326-0.13-0.496-0.122H6.799c-0.304,0.014-0.507,0.103-0.613,0.271c-0.102,0.167-0.174,0.337-0.203,0.507
		L1.023,71.962c-0.039,0.1-0.029,0.246,0.026,0.445c0.05,0.196,0.29,0.304,0.716,0.326H4.703z"/>
	<path fill="#FFFFFF" d="M47.697,63.748c0-0.759,0.039-1.536,0.113-2.324c0.076-0.788,0.196-1.532,0.351-2.241
		c0.106-0.533,0.287-1.1,0.548-1.692c0.255-0.592,0.63-1.1,1.125-1.522c0.497-0.421,1.15-0.641,1.969-0.657
		c0.963,0.023,1.668,0.351,2.113,0.97c0.441,0.627,0.725,1.384,0.839,2.278c0.117,0.892,0.165,1.76,0.149,2.599
		c0.023,0.669-0.036,1.622-0.18,2.855c-0.137,1.237-0.492,2.368-1.07,3.402c-0.571,1.031-1.498,1.58-2.781,1.644
		c-0.943-0.029-1.639-0.333-2.1-0.914c-0.457-0.577-0.754-1.275-0.891-2.088C47.743,65.243,47.684,64.473,47.697,63.748
		 M39.409,59.767l0.431-7.511c0.008-0.299-0.049-0.48-0.176-0.547c-0.124-0.059-0.262-0.089-0.405-0.077h-4.067
		c-0.355,0.014-0.577,0.08-0.666,0.212c-0.084,0.129-0.121,0.265-0.107,0.412l-1.087,19.748c-0.021,0.164,0,0.327,0.071,0.485
		c0.065,0.148,0.301,0.233,0.701,0.244h4.064c0.266-0.016,0.434-0.108,0.497-0.278c0.071-0.173,0.099-0.319,0.091-0.451l0.463-8.176
		h2.827c0.003,1.063,0.127,2.096,0.372,3.095c0.252,0.999,0.592,1.87,1.021,2.602c0.856,1.384,1.881,2.336,3.082,2.858
		c1.201,0.518,2.429,0.766,3.692,0.737c3.11-0.029,5.628-1.112,7.536-3.231c1.917-2.119,2.9-5.094,2.959-8.924
		c-0.034-3.202-0.803-5.618-2.328-7.253c-1.517-1.639-3.607-2.457-6.268-2.463c-1.75,0.03-3.199,0.322-4.325,0.873
		c-1.126,0.549-1.998,1.163-2.604,1.832c-0.761,0.81-1.373,1.726-1.851,2.748c-0.478,1.019-0.8,2.038-0.978,3.064H39.409z"/>
	<path fill="#FFFFFF" d="M60.601,71.107c0.013,0.366,0.179,0.653,0.497,0.859c0.322,0.205,0.594,0.346,0.818,0.421
		c0.578,0.233,1.188,0.411,1.838,0.541c0.643,0.129,1.365,0.192,2.152,0.192c0.981,0.003,2.002-0.087,3.078-0.265
		c1.066-0.18,2-0.452,2.81-0.817c1.101-0.526,1.995-1.308,2.684-2.335c0.688-1.026,1.044-2.262,1.06-3.702
		c0.015-0.758-0.131-1.449-0.418-2.073c-0.282-0.621-0.764-1.158-1.433-1.606c-0.42-0.272-0.907-0.49-1.448-0.658
		c-0.539-0.167-1.052-0.268-1.533-0.308v-0.08c0.179-0.033,0.58-0.173,1.223-0.419c0.646-0.25,1.296-0.651,1.949-1.207
		c0.49-0.438,0.861-0.943,1.119-1.506c0.259-0.565,0.388-1.213,0.392-1.943c-0.013-0.947-0.222-1.738-0.627-2.378
		c-0.401-0.636-0.927-1.148-1.579-1.53c-0.246-0.18-0.752-0.391-1.531-0.64c-0.777-0.245-1.88-0.382-3.303-0.404
		c-0.932,0.002-1.783,0.08-2.566,0.232c-0.776,0.151-1.485,0.346-2.123,0.577c-0.635,0.258-1.053,0.483-1.246,0.685
		c-0.195,0.199-0.28,0.357-0.264,0.479l-0.156,2.9c0.002,0.14,0.041,0.267,0.109,0.375c0.069,0.108,0.158,0.166,0.281,0.169
		c0.111-0.002,0.238-0.037,0.379-0.11c0.141-0.072,0.323-0.179,0.552-0.319c0.404-0.249,0.931-0.494,1.573-0.734
		c0.648-0.241,1.424-0.369,2.337-0.388c0.853,0.007,1.502,0.207,1.933,0.608c0.44,0.396,0.656,0.957,0.66,1.679
		c-0.014,0.856-0.34,1.518-0.963,1.977c-0.631,0.458-1.46,0.692-2.482,0.699h-1.627c-0.119-0.017-0.269,0.02-0.465,0.095
		c-0.195,0.074-0.31,0.264-0.349,0.559l-0.121,2.284c-0.01,0.092,0.013,0.219,0.085,0.367c0.068,0.152,0.284,0.234,0.655,0.25h1.551
		c0.263-0.016,0.683,0.023,1.247,0.106c0.577,0.09,1.105,0.318,1.604,0.697c0.496,0.368,0.758,0.983,0.783,1.835
		c0.023,0.724-0.244,1.362-0.783,1.919c-0.532,0.552-1.434,0.843-2.696,0.872c-0.65,0.009-1.289-0.072-1.927-0.234
		c-0.64-0.162-1.338-0.474-2.099-0.928c-0.137-0.087-0.291-0.169-0.463-0.252c-0.159-0.084-0.33-0.133-0.51-0.137
		c-0.188,0.008-0.319,0.079-0.397,0.209c-0.072,0.126-0.109,0.268-0.102,0.413L60.601,71.107z"/>
	<path fill="#FFFFFF" d="M90.819,72.733h4.063c0.141,0.016,0.267-0.022,0.377-0.108c0.111-0.078,0.181-0.29,0.199-0.621
		l1.049-19.748c0.014-0.164-0.006-0.304-0.06-0.427c-0.052-0.125-0.225-0.186-0.522-0.197h-4.063
		c-0.146-0.013-0.306,0.019-0.479,0.077c-0.164,0.067-0.262,0.248-0.299,0.547l-0.188,3.021c-0.118,1.331-0.498,2.79-1.145,4.383
		c-0.646,1.591-1.334,2.997-2.069,4.212c-0.177,0.293-0.431,0.679-0.769,1.153c-0.342,0.475-0.719,0.909-1.135,1.293
		c-0.42,0.387-0.826,0.592-1.236,0.615c-0.47-0.021-0.765-0.209-0.895-0.562c-0.123-0.357-0.163-0.773-0.107-1.261l0.963-12.74
		c0.011-0.335-0.071-0.543-0.231-0.627c-0.157-0.083-0.312-0.123-0.46-0.11h-4.257c-0.188-0.013-0.368,0.027-0.541,0.11
		c-0.177,0.084-0.278,0.292-0.31,0.627l-0.852,16.187c-0.046,0.544-0.008,1.167,0.105,1.873c0.125,0.701,0.451,1.319,0.983,1.854
		c0.528,0.531,1.394,0.812,2.586,0.838c1.05-0.006,1.993-0.224,2.819-0.658c0.828-0.429,1.598-1.038,2.326-1.815
		c1.006-1.106,1.805-2.225,2.406-3.361c0.607-1.133,1.023-2.038,1.275-2.721h0.075L90.039,72c-0.027,0.217,0.002,0.392,0.102,0.525
		C90.234,72.661,90.459,72.73,90.819,72.733"/>
	<path fill="#FFFFFF" d="M111.543,72.733h5.109c0.133,0.01,0.271-0.016,0.417-0.076c0.15-0.057,0.229-0.198,0.245-0.422
		c-0.007-0.106-0.041-0.216-0.107-0.334c-0.056-0.119-0.098-0.202-0.127-0.248l-6.311-10.377l7.668-8.675
		c0.063-0.065,0.127-0.163,0.193-0.3c0.068-0.133,0.109-0.252,0.113-0.357c-0.011-0.128-0.064-0.219-0.174-0.254l-0.293-0.057
		h-4.641c-0.233,0.011-0.424,0.061-0.559,0.16c-0.145,0.091-0.236,0.183-0.293,0.266l-7.822,9.104l-0.16,0.223l-0.074,0.279
		l0.048,0.244l0.104,0.218l5.851,10.224c0.03,0.068,0.104,0.147,0.214,0.236C111.063,72.674,111.256,72.723,111.543,72.733
		 M99.113,72.733h4.067c0.257-0.016,0.427-0.108,0.489-0.278c0.067-0.173,0.102-0.319,0.091-0.451l1.085-19.748
		c0.009-0.299-0.045-0.479-0.178-0.547c-0.123-0.059-0.262-0.09-0.407-0.077h-4.067c-0.354,0.014-0.574,0.08-0.66,0.212
		c-0.088,0.129-0.123,0.266-0.111,0.412l-1.086,19.748c-0.021,0.164,0.006,0.327,0.067,0.485
		C98.474,72.638,98.711,72.723,99.113,72.733"/>
	<path fill="#EFA0C6" d="M138.535,90.537c0.018-2.271,0.223-4.032,0.621-5.269c0.397-1.243,0.91-2.1,1.545-2.572
		c0.619-0.477,1.281-0.698,1.988-0.679c0.945,0.03,1.644,0.349,2.08,0.966c0.439,0.618,0.713,1.373,0.834,2.266
		c0.107,0.896,0.16,1.766,0.143,2.62c-0.02,2.245-0.252,3.938-0.682,5.077c-0.44,1.147-0.972,1.908-1.593,2.29
		c-0.624,0.388-1.221,0.565-1.796,0.535c-0.926-0.027-1.62-0.327-2.072-0.897c-0.449-0.578-0.742-1.259-0.882-2.063
		C138.588,92.006,138.529,91.254,138.535,90.537 M141.096,99.83c3.094-0.035,5.602-1.117,7.508-3.244
		c1.906-2.13,2.889-5.099,2.947-8.913c-0.053-3.335-0.857-5.793-2.436-7.371c-1.572-1.575-3.609-2.357-6.117-2.346
		c-3.01,0.027-5.451,1.1-7.346,3.219c-1.883,2.119-2.858,5.138-2.92,9.055c0.055,3.296,0.853,5.729,2.396,7.285
		C136.672,99.073,138.664,99.846,141.096,99.83"/>
	<path fill="#EFA0C6" d="M161.334,82.404h3.486l-0.896,16.31c-0.026,0.215,0,0.389,0.103,0.521c0.093,0.134,0.32,0.202,0.677,0.211
		h4.061c0.145,0.008,0.271-0.028,0.382-0.108c0.114-0.085,0.185-0.292,0.202-0.625l1.088-19.749
		c0.012-0.163-0.007-0.304-0.061-0.427c-0.051-0.118-0.228-0.186-0.521-0.192h-12.199c-0.428,0.017-0.691,0.117-0.802,0.317
		c-0.112,0.199-0.167,0.403-0.167,0.613l-0.46,3.785c-0.099,0.773-0.226,1.635-0.382,2.59c-0.163,0.954-0.326,1.871-0.51,2.757
		c-0.18,0.882-0.346,1.61-0.506,2.172c-0.293,1.015-0.598,1.807-0.912,2.366c-0.313,0.565-0.619,0.978-0.914,1.238
		c-0.438,0.37-0.838,0.593-1.203,0.674c-0.355,0.084-0.578,0.111-0.652,0.099h-0.229c-0.17,0.01-0.269,0.082-0.31,0.221
		c-0.034,0.128-0.05,0.252-0.037,0.356l0.728,3.407c-0.016,0.128,0.047,0.27,0.18,0.416c0.139,0.149,0.549,0.306,1.518,0.098
		c0.569-0.098,1.101-0.245,1.6-0.438c1.365-0.583,2.396-1.391,3.082-2.415c0.686-1.03,1.182-2.027,1.486-2.999
		c0.254-0.66,0.537-1.698,0.863-3.112c0.321-1.414,0.667-3.438,1.035-6.072L161.334,82.404z"/>
	<path fill="#EFA0C6" d="M181.416,82.287h3.49l-0.892,16.311c-0.036,0.213,0,0.388,0.099,0.52c0.094,0.138,0.318,0.202,0.674,0.213
		h4.065c0.14,0.009,0.267-0.029,0.378-0.109c0.11-0.086,0.18-0.293,0.202-0.624l1.087-19.751c0.014-0.163-0.006-0.305-0.063-0.424
		c-0.051-0.121-0.228-0.189-0.521-0.193H177.74c-0.428,0.016-0.695,0.117-0.807,0.315c-0.104,0.197-0.16,0.402-0.163,0.615
		l-0.464,3.782c-0.094,0.776-0.219,1.635-0.378,2.588c-0.159,0.958-0.333,1.875-0.509,2.762c-0.18,0.881-0.35,1.607-0.506,2.17
		c-0.297,1.013-0.601,1.807-0.912,2.365c-0.313,0.565-0.615,0.977-0.909,1.237c-0.441,0.372-0.843,0.594-1.205,0.675
		c-0.358,0.082-0.578,0.115-0.657,0.099h-0.229c-0.17,0.01-0.271,0.082-0.307,0.223c-0.035,0.131-0.048,0.251-0.039,0.354
		l0.729,3.409c-0.012,0.126,0.046,0.267,0.183,0.416c0.134,0.144,0.546,0.304,1.515,0.096c0.569-0.096,1.097-0.244,1.597-0.438
		c1.366-0.583,2.399-1.39,3.078-2.416c0.692-1.028,1.188-2.026,1.491-2.999c0.252-0.659,0.543-1.695,0.861-3.109
		c0.323-1.415,0.667-3.439,1.032-6.074L181.416,82.287z"/>
	<path fill="#C267A6" d="M169.684,25.208c-4.635,2.924-9.334,6.317-14.129,11.206c-3.072,3.132-6.042,6.72-9.738,11.335
		c-3.304,4.125-8.188,12.606-10.451,16.443c3.479-5.178,8.011-12.676,15.901-19.982c9.009-8.341,17.052-13.058,29.251-18.365
		c11.536-5.018,20.405-4.745,20.405-4.745l1.513-9.296C190.27,14.759,180.111,18.622,169.684,25.208"/>
	<path fill="#E7378C" d="M133.062,98.518l-7.354-12.541l0.976-1.278c3.479-3.985,7.974-8.488,13.243-12.304
		c-3.492,1.476-6.516,3.205-9.114,4.976c-8.114,5.277-11.573,9.76-12.11,10.482c0.115-0.155-0.451,0.617,0,0l-0.908,1.124
		l-7.264,9.58l-0.142,0.217l-0.056,0.243c-0.004,0.106,0.035,0.2,0.129,0.288c0.091,0.088,0.271,0.133,0.533,0.141h4.455
		c0.08,0.006,0.191-0.011,0.334-0.046c0.145-0.037,0.275-0.137,0.398-0.3l5.968-8.478l4.482,8.36
		c0.133,0.221,0.233,0.357,0.323,0.404c0.078,0.049,0.191,0.069,0.343,0.06h5.265c0.079,0.009,0.203-0.015,0.375-0.063
		c0.169-0.055,0.258-0.2,0.284-0.44l-0.049-0.226L133.062,98.518z"/>
	<path fill="#FFFFFF" d="M11.881,29.218c-0.312,0.1-1.156,0.3-2.156,0.3c-2.668,0-3.69-2.101-3.69-3.857
		c0-1.833,0.933-4.102,3.778-4.102c0.734,0,1.355,0.067,1.99,0.301l-0.067,0.667c-0.544-0.223-1.222-0.334-1.854-0.334
		c-1.869,0-3.058,1.49-3.058,3.48c0,1.767,1.155,3.212,3.013,3.212c0.711,0,1.455-0.134,2.045-0.367V29.218z"/>
	<path fill="#FFFFFF" d="M15.658,26.539c-1.043,0-2.268,0.179-2.268,1.323c0,0.611,0.479,1.068,1.123,1.068
		c1.089,0,1.777-0.734,1.777-1.98v-0.411H15.658z M13.279,23.994c0.479-0.212,1.034-0.355,1.7-0.355
		c1.847,0,2.013,1.344,2.013,2.123v2.423l0.033,1.245h-0.622v-0.968h-0.022c-0.478,0.878-1.244,1.058-1.856,1.058
		c-1.233,0-1.868-0.734-1.868-1.613c0-1.867,2.113-1.956,3.27-1.956h0.365v-0.2c0-0.398-0.01-1.521-1.312-1.521
		c-0.554,0-1.155,0.133-1.7,0.433V23.994z"/>
	<polygon fill="#FFFFFF" points="19.447,23.728 19.447,26.174 22.538,26.174 22.538,23.728 23.238,23.728 23.238,29.43 
		22.538,29.43 22.538,26.763 19.447,26.763 19.447,29.43 18.748,29.43 18.748,23.728 	"/>
	<polygon fill="#FFFFFF" points="25.661,23.728 25.661,26.24 25.695,26.24 28.307,23.728 29.207,23.728 26.404,26.384 29.507,29.43 
		28.518,29.43 25.695,26.606 25.661,26.606 25.661,29.43 24.961,29.43 24.961,23.728 	"/>
	<polygon fill="#FFFFFF" points="33.874,23.728 33.874,24.316 32.096,24.316 32.096,29.43 31.396,29.43 31.396,24.316 
		29.617,24.316 29.617,23.728 	"/>
	<rect x="35.04" y="26.173" fill="#FFFFFF" width="2.446" height="0.588"/>
	<polygon fill="#FFFFFF" points="45.178,21.648 45.178,29.43 44.443,29.43 44.443,22.283 40.387,22.283 40.387,29.43 39.652,29.43 
		39.652,21.648 	"/>
	<path fill="#FFFFFF" d="M50.701,26.195c0.011-0.456-0.066-1.967-1.547-1.967c-1.154,0-1.721,1.011-1.743,1.967H50.701z
		 M47.411,26.784c-0.013,0.7,0.266,2.146,1.889,2.146c0.579,0,1.134-0.078,1.701-0.367v0.646c-0.578,0.244-1.134,0.311-1.711,0.311
		c-1.624,0-2.613-1.079-2.613-3.035c0-1.789,1.034-2.845,2.478-2.845c2.125,0,2.279,1.933,2.279,2.923v0.222H47.411z"/>
	<polygon fill="#FFFFFF" points="56.191,23.728 56.191,24.316 54.412,24.316 54.412,29.43 53.713,29.43 53.713,24.316 
		51.934,24.316 51.934,23.728 	"/>
	<path fill="#FFFFFF" d="M60.714,26.195c0.012-0.456-0.065-1.967-1.545-1.967c-1.155,0-1.722,1.011-1.744,1.967H60.714z
		 M57.425,26.784c-0.013,0.7,0.267,2.146,1.889,2.146c0.579,0,1.134-0.078,1.701-0.367v0.646c-0.578,0.244-1.134,0.311-1.712,0.311
		c-1.623,0-2.611-1.079-2.611-3.035c0-1.789,1.033-2.845,2.478-2.845c2.124,0,2.278,1.933,2.278,2.923v0.222H57.425z"/>
	<path fill="#FFFFFF" d="M65.193,28.93c0.666,0,1.723-0.545,1.723-2.356c0-1.789-1.057-2.346-1.723-2.346
		c-0.668,0-1.724,0.557-1.724,2.346C63.47,28.385,64.525,28.93,65.193,28.93 M62.77,31.864v-7.036l-0.044-1.101h0.667v1.177h0.033
		c0.189-0.522,0.656-1.266,1.768-1.266c1.577,0,2.457,1.133,2.457,2.935c0,2.09-1.19,2.945-2.457,2.945
		c-0.768,0-1.367-0.456-1.711-1.111h-0.035l0.022,0.545v2.912H62.77z"/>
	<path fill="#FFFFFF" d="M71.451,28.929c1.032,0,1.955-0.756,1.955-2.301c0-1.611-0.934-2.4-1.955-2.4
		c-1.024,0-1.957,0.789-1.957,2.4C69.494,28.173,70.416,28.929,71.451,28.929 M73.65,21.482c-1.699,0.266-2.578,0.067-3.412,0.712
		c-0.889,0.688-0.955,1.733-0.955,2.733v0.267h0.032c0.322-0.922,1.123-1.557,2.123-1.557c1.435,0,2.702,0.945,2.702,2.99
		c0,2.068-1.445,2.891-2.712,2.891c-2.335,0-2.78-2.135-2.78-4.303c0-1.534,0.156-2.722,1.268-3.545
		c1.045-0.778,2.267-0.567,3.734-0.845V21.482z"/>
	<path fill="#FFFFFF" d="M75.328,31.152c0.189,0.066,0.412,0.078,0.579,0.078c0.455,0,0.644-0.323,0.821-0.867l0.246-0.745
		l-2.058-5.891h0.744l1.502,4.346l0.177,0.567h0.012l0.177-0.556l1.446-4.357h0.722l-2.435,6.991
		c-0.233,0.667-0.556,1.146-1.256,1.146c-0.244,0-0.511-0.023-0.744-0.089L75.328,31.152z"/>
	<path fill="#FFFFFF" d="M83.329,28.93c0.668,0,1.724-0.545,1.724-2.356c0-1.789-1.056-2.346-1.724-2.346
		c-0.666,0-1.722,0.557-1.722,2.346C81.607,28.385,82.663,28.93,83.329,28.93 M80.907,31.864v-7.036l-0.044-1.101h0.667v1.177h0.033
		c0.188-0.522,0.655-1.266,1.766-1.266c1.58,0,2.458,1.133,2.458,2.935c0,2.09-1.189,2.945-2.458,2.945
		c-0.765,0-1.364-0.456-1.71-1.111h-0.033l0.021,0.545v2.912H80.907z"/>
	<polygon fill="#FFFFFF" points="90.609,23.728 90.609,24.316 87.82,24.316 87.82,29.43 87.119,29.43 87.119,23.728 	"/>
	<path fill="#FFFFFF" d="M95.268,24.483c-0.456-0.2-0.912-0.266-1.322-0.266c-1.324,0-2.146,0.966-2.146,2.367
		c0,1.645,1.045,2.356,2.223,2.356c0.322,0,0.767-0.044,1.255-0.244l0.067,0.6c-0.466,0.178-0.856,0.223-1.322,0.223
		c-1.856,0-2.957-1.201-2.957-2.935c0-1.5,0.923-2.946,2.868-2.946c0.255,0,0.755,0.023,1.367,0.223L95.268,24.483z"/>
	<polygon fill="#FFFFFF" points="97.211,23.728 97.211,26.24 97.244,26.24 99.857,23.728 100.756,23.728 97.955,26.384 
		101.057,29.43 100.068,29.43 97.244,26.606 97.211,26.606 97.211,29.43 96.512,29.43 96.512,23.728 	"/>
	<polygon fill="#FFFFFF" points="102.646,23.728 102.646,27.908 102.635,28.507 102.668,28.507 103.045,27.896 105.992,23.728 
		106.77,23.728 106.77,29.43 106.07,29.43 106.07,25.251 106.082,24.649 106.049,24.649 105.67,25.251 102.724,29.43 101.946,29.43 
		101.946,23.728 	"/>
	<path fill="#FFFFFF" d="M109.615,21.159c0.478,0.579,0.988,0.635,1.289,0.635s0.812-0.057,1.289-0.635l0.334,0.391
		c-0.4,0.532-0.99,0.865-1.623,0.865s-1.224-0.333-1.623-0.865L109.615,21.159z M109.193,23.728v4.18l-0.013,0.599h0.034
		l0.377-0.611l2.947-4.168h0.777v5.702h-0.699v-4.179l0.011-0.602h-0.033l-0.379,0.602l-2.946,4.179h-0.777v-5.702H109.193z"/>
	<polygon fill="#FFFFFF" points="92.123,34.841 92.123,35.43 90.344,35.43 90.344,40.544 89.645,40.544 89.645,35.43 87.865,35.43 
		87.865,34.841 	"/>
	<path fill="#FFFFFF" d="M96.645,37.309c0.013-0.456-0.065-1.968-1.545-1.968c-1.154,0-1.722,1.012-1.744,1.968H96.645z
		 M93.355,37.897c-0.012,0.7,0.267,2.146,1.891,2.146c0.578,0,1.133-0.077,1.699-0.367v0.644c-0.576,0.245-1.133,0.313-1.711,0.313
		c-1.623,0-2.612-1.079-2.612-3.035c0-1.789,1.035-2.846,2.478-2.846c2.123,0,2.28,1.934,2.28,2.925v0.221H93.355z"/>
	<path fill="#FFFFFF" d="M101.269,37.653c-1.046,0-2.267,0.179-2.267,1.322c0,0.612,0.477,1.069,1.121,1.069
		c1.09,0,1.778-0.735,1.778-1.98v-0.411H101.269z M98.89,35.108c0.478-0.21,1.034-0.356,1.701-0.356
		c1.844,0,2.011,1.345,2.011,2.124v2.423l0.035,1.245h-0.623v-0.968h-0.023c-0.478,0.878-1.244,1.057-1.856,1.057
		c-1.233,0-1.867-0.734-1.867-1.613c0-1.867,2.112-1.956,3.269-1.956h0.366v-0.2c0-0.401-0.011-1.523-1.311-1.523
		c-0.556,0-1.156,0.134-1.701,0.435V35.108z"/>
	<polygon fill="#FFFFFF" points="107.838,34.841 107.838,35.43 106.059,35.43 106.059,40.544 105.358,40.544 105.358,35.43 
		103.58,35.43 103.58,34.841 	"/>
	<path fill="#FFFFFF" d="M111.248,40.044c0.668,0,1.725-0.545,1.725-2.357c0-1.789-1.057-2.346-1.725-2.346
		c-0.666,0-1.722,0.557-1.722,2.346C109.526,39.499,110.582,40.044,111.248,40.044 M108.826,42.978v-7.036l-0.045-1.101h0.668v1.178
		h0.032c0.19-0.521,0.655-1.267,1.767-1.267c1.579,0,2.457,1.134,2.457,2.935c0,2.089-1.189,2.946-2.457,2.946
		c-0.767,0-1.365-0.456-1.71-1.113h-0.034l0.022,0.544v2.914H108.826z"/>
	<path fill="#E7378C" d="M138.143,66.169c5.6-5.327,11.811-10.076,18.36-13.917c15.06-8.83,31.724-15.432,59.758-11.873
		l3.644-13.938c0.021-0.122,0.037-0.256-0.055-0.42c-0.06-0.106-0.109-0.142-0.348-0.22c-17.911-1.092-37.216,2.957-49.273,8.542
		c-9.728,4.507-21.604,13.252-29.675,22.979c-3.584,4.322-5.481,6.87-12.463,17.22l0.121-0.133l0.135-0.146
		c0.41-0.433,0.82-0.85,1.228-1.248l0.111-0.111c0.44-0.423,0.875-0.826,1.308-1.195L138.143,66.169z"/>
	<path fill="#951B81" d="M216.316,40.386c-28.069-3.575-44.746,3.031-59.813,11.865c-6.551,3.842-13.021,8.583-18.619,13.909
		c0.243-0.162,0.56-0.351,0.804-0.512c3.528-2.405,7.451-4.551,11.207-6.276c0.424-0.18,0.848-0.359,1.271-0.528
		c25.623-10.167,48.14-6.008,60.8-1.836L216.316,40.386z"/>
	<path fill="#FFFFFF" d="M141.613,37.543c-2.01-6.708-7.878-11.929-9.499-13.274c-0.007,0-0.233-0.118-0.437-0.068
		c-0.293,0.068-0.369,0.17-0.504,0.348l-2.849,6.771c3.651,2.383,7.981,6.19,9.349,10.66c2.202,7.177,0.99,12.456-0.522,17.59
		c-0.318,1.089-1.491,3.403-2.548,5.382l0.072-0.147l-0.164,0.308c-0.143,0.278-0.248,0.477-0.33,0.625l0.019-0.038l-0.062,0.113
		l-0.006,0.01l-0.021,0.036l-0.063,0.113c0.26-0.385,5.193-7.783,6.225-9.845C142.557,51.54,143.787,44.816,141.613,37.543"/>
	<path fill="#7E60A6" d="M132.399,46.464c-3.282-4.162-8.154-5.278-8.154-5.278l4.187-9.943c-1.981-1.383-3.715-2.358-4.614-2.837
		c-0.099-0.039-0.298-0.065-0.485,0.021c-0.236,0.109-0.32,0.245-0.357,0.353l-4.196,16c0,0,6.364,1.06,9.269,3.717
		c4.521,4.137,5.996,8.672,6.168,11.588c0.297,5.03-1.773,8.275-1.773,8.275s0.974-1.125,1.751-2.559l-0.024,0.037l0.086-0.149
		c0.131-0.24,0.264-0.488,0.4-0.746c0.827-1.603,2.408-5.081,2.314-8.084C136.877,53.961,135.984,51.018,132.399,46.464"/>
	<path fill="#E7378C" d="M119.756,75.142l-0.024-0.022c-0.123-0.116-0.243-0.256-0.628-0.211l-5.135,1.055
		c-0.022,0.023-0.113,0.067-0.162,0.196c-0.109,0.293-0.033,0.363-0.02,0.458l5.596,9.519l3.313-5.361L119.756,75.142z"/>
</g>
<g id="Слой_3" display="none">
</g>
<g id="Слой_2" display="none">
</g>
</svg>
