<?xml version="1.0" encoding="utf-8"?>
<!-- Generator: Adobe Illustrator 16.0.0, SVG Export Plug-In . SVG Version: 6.00 Build 0)  -->
<!DOCTYPE svg PUBLIC "-//W3C//DTD SVG 1.1//EN" "http://www.w3.org/Graphics/SVG/1.1/DTD/svg11.dtd">
<svg version="1.1" xmlns="http://www.w3.org/2000/svg" xmlns:xlink="http://www.w3.org/1999/xlink" x="0px" y="0px"
	 width="41.668px" height="38.334px" viewBox="0 0 41.668 38.334" enable-background="new 0 0 41.668 38.334" xml:space="preserve">
<g id="Слой_1">
	<g>
		<defs>
			<rect id="SVGID_1_" x="-2462.332" y="-747" width="2144" height="2579"/>
		</defs>
		<clipPath id="SVGID_2_">
			<use xlink:href="#SVGID_1_"  overflow="visible"/>
		</clipPath>
	</g>
	<path fill-rule="evenodd" clip-rule="evenodd" fill="#666666" d="M20.443,25h1.24c0,0,0.375,0.07,0.566-0.13
		c0.176-0.183,0.17-0.472,0.17-0.472s-0.023-1.584,0.748-1.821c0.762-0.234,1.74,1.571,2.775,2.26
		c0.785,0.521,1.379,0.413,1.379,0.413l2.772-0.034c0,0,1.45-0.085,0.763-1.188c-0.057-0.09-0.4-0.816-2.061-2.308
		c-1.738-1.561-1.505-1.308,0.588-4.009c1.275-1.645,1.784-2.649,1.625-3.079c-0.152-0.41-1.089-0.302-1.089-0.302L26.8,14.35
		c0,0-0.231-0.03-0.403,0.069c-0.168,0.097-0.274,0.324-0.274,0.324s-0.494,1.273-1.153,2.356c-1.389,2.284-1.945,2.405-2.172,2.263
		c-0.527-0.331-0.396-1.328-0.396-2.037c0-2.214,0.347-3.137-0.676-3.376c-0.339-0.079-0.589-0.131-1.455-0.14
		c-1.115-0.011-2.057,0.004-2.591,0.257c-0.354,0.168-0.629,0.543-0.462,0.564c0.207,0.027,0.674,0.122,0.921,0.449
		c0.32,0.421,0.31,1.367,0.31,1.367s0.184,2.605-0.43,2.929c-0.421,0.222-0.998-0.231-2.236-2.303
		c-0.635-1.063-1.114-2.235-1.114-2.235s-0.093-0.22-0.257-0.337c-0.2-0.142-0.479-0.187-0.479-0.187l-2.966,0.018
		c0,0-0.445,0.013-0.607,0.2c-0.146,0.167-0.013,0.511-0.013,0.511s2.322,5.149,4.95,7.798C17.706,25.27,20.443,25,20.443,25"/>
	<path fill="#666666" d="M28.992,5c3.975,0,7.676,2.864,7.676,6.712V27.27c0,3.847-3.701,6.731-7.676,6.731H12.924
		c-3.975,0-7.256-2.884-7.256-6.731V11.712C5.668,7.865,8.949,5,12.924,5h15.744 M28.992,2H12.924C7.26,2,2.668,6.229,2.668,11.712
		V27.27C2.668,32.752,7.26,37,12.924,37h16.068c5.664,0,10.676-4.248,10.676-9.731V11.712C39.668,6.229,34.656,2,28.992,2"/>
</g>
<g id="Слой_4" display="none">
</g>
<g id="Слой_3" display="none">
	
		<linearGradient id="SVGID_4_" gradientUnits="userSpaceOnUse" x1="-2461.9629" y1="1831.6294" x2="-2460.9624" y2="1831.6294" gradientTransform="matrix(1.000000e-007 -2558.4958 -2558.4958 -1.000000e-007 4685775 -6298048.5)">
		<stop  offset="0" style="stop-color:#2D003F"/>
		<stop  offset="0.1809" style="stop-color:#7B0094"/>
		<stop  offset="0.4149" style="stop-color:#3C00AA"/>
		<stop  offset="0.5798" style="stop-color:#49007F"/>
		<stop  offset="0.7553" style="stop-color:#6300BF"/>
		<stop  offset="0.9043" style="stop-color:#9E005D"/>
		<stop  offset="1" style="stop-color:#FF94B2"/>
	</linearGradient>
	<rect x="-1512.278" y="-1692.094" display="inline" fill="url(#SVGID_4_)" width="2144" height="2579.001"/>
</g>
<g id="Слой_2" display="none">
</g>
</svg>
