<?xml version="1.0" encoding="utf-8"?>
<!-- Generator: Adobe Illustrator 19.0.1, SVG Export Plug-In . SVG Version: 6.00 Build 0)  -->
<svg version="1.1" id="Слой_1" xmlns="http://www.w3.org/2000/svg" xmlns:xlink="http://www.w3.org/1999/xlink" x="0px" y="0px"
	 viewBox="0 0 37.5 37.5" style="enable-background:new 0 0 37.5 37.5;" xml:space="preserve">
<rect x="-82" y="-80.5" fill="#1C1F21" width="200" height="200"/>
<g>
	<path fill="#1C1F21" d="M18.3,2c-4.5,0-5.2,0-7.1,0.1C9.3,2.2,7.9,2.5,6.8,2.9c-1.2,0.5-2.2,1.1-3.2,2c-1,1-1.6,2-2.1,3.1
		C1,9.2,0.7,10.5,0.6,12.3c-0.1,1.9-0.1,2.5-0.1,7.3s0,5.4,0.1,7.3c0.1,1.9,0.4,3.2,0.8,4.3c0.5,1.2,1.1,2.1,2.1,3.1
		c1,1,2,1.6,3.2,2c1.2,0.4,2.5,0.7,4.4,0.8c1.9,0.1,2.6,0.1,7.5,0.1c5,0,5.6,0,7.5-0.1c1.9-0.1,3.3-0.4,4.4-0.8
		c1.2-0.5,2.2-1.1,3.2-2c1-1,1.6-2,2.1-3.1c0.5-1.1,0.5-2.4,0.6-4.3c0.1-1.8-0.1-2.4-0.1-6.9v-0.9c0-4.4,0.2-5,0.1-6.9
		c-0.1-1.9-0.3-3.2-0.7-4.3c-0.5-1.2-1-2.1-2-3.1c-1-1-2-1.6-3.2-2c-1.2-0.4-2.5-0.7-4.4-0.8C24.4,2,23.7,2,19.2,2H18.3L18.3,2z
		 M18.7,5.1c4.9,0,5.5,0,7.4,0.1c1.8,0.1,2.7,0.4,3.4,0.6c0.9,0.3,1.5,0.7,2.1,1.3c0.6,0.6,1,1.2,1.4,2c0.3,0.6,0.5,1.6,0.6,3.3
		c0.1,1.9,0.1,2.4,0.1,7.1c0,4.7,0,5.3-0.1,7.1c-0.1,1.7-0.4,2.7-0.6,3.3c-0.3,0.8-0.7,1.4-1.4,2c-0.6,0.6-1.2,1-2.1,1.3
		c-0.6,0.2-1.6,0.5-3.4,0.6c-1.9,0.1-2.5,0.1-7.4,0.1c-4.9,0-5.5,0-7.4-0.1c-1.8-0.1-2.7-0.4-3.4-0.6c-0.9-0.3-1.5-0.7-2.1-1.3
		c-0.6-0.6-1-1.2-1.4-2c-0.3-0.6-0.5-1.6-0.6-3.3c-0.1-1.9-0.1-2.4-0.1-7.1c0-4.7,0-5.3,0.1-7.1C4,10.8,4.3,9.8,4.5,9.2
		c0.3-0.8,0.7-1.4,1.4-2c0.6-0.6,1.2-1,2.1-1.3c0.6-0.2,1.6-0.5,3.4-0.6C13.3,5.2,13.9,5.1,18.7,5.1z"/>
	<path fill="#666666" d="M29,13c-0.8-1-2.3-1.4-5.2-1.4H13.5c-2.9,0-4.4,0.4-5.3,1.4c-0.8,1-0.8,2.5-0.8,4.5v3.9c0,4,0.9,6,6,6h10.4
		c2.5,0,3.9-0.3,4.7-1.2c0.9-0.9,1.3-2.3,1.3-4.8v-3.9C29.9,15.5,29.8,14,29,13L29,13z M21.9,20.1l-4.7,2.5
		c-0.1,0.1-0.2,0.1-0.3,0.1c-0.1,0-0.3,0-0.4-0.1c-0.2-0.1-0.3-0.4-0.3-0.6V17c0-0.3,0.1-0.5,0.3-0.6c0.2-0.1,0.5-0.1,0.7,0l4.7,2.4
		c0.2,0.1,0.4,0.4,0.4,0.6C22.3,19.7,22.1,20,21.9,20.1L21.9,20.1z M21.9,20.1"/>
</g>
</svg>
